{
  "accessors": [
    {
      "bufferView": 2,
      "componentType": 5126,
      "count": 11144,
      "max": [
        14.53575325012207,
        19.010602951049805,
        33.51900863647461
      ],
      "min": [
        -13.093132972717285,
        -19.010602951049805,
        -33.51900863647461
      ],
      "type": "VEC3"
    },
    {
      "bufferView": 2,
      "byteOffset": 133728,
      "componentType": 5126,
      "count": 11144,
      "max": [
        1.0,
        1.0,
        1.0
      ],
      "min": [
        -1.0,
        -1.0,
        -1.0
      ],
      "type": "VEC3"
    },
    {
      "bufferView": 1,
      "componentType": 5126,
      "count": 11144,
      "max": [
        0.875,
        0.9630796313285828
      ],
      "min": [
        0.0,
        0.0
      ],
      "type": "VEC2"
    },
    {
      "bufferView": 0,
      "componentType": 5125,
      "count": 24504,
      "type": "SCALAR"
    },
    {
      "bufferView": 2,
      "byteOffset": 267456,
      "componentType": 5126,
      "count": 4,
      "max": [
        6.0205841064453125,
        4.9206953048706055,
        0.0
      ],
      "min": [
        -6.0205841064453125,
        -4.9206953048706055,
        0.0
      ],
      "type": "VEC3"
    },
    {
      "bufferView": 2,
      "byteOffset": 267504,
      "componentType": 5126,
      "count": 4,
      "max": [
        0.0,
        0.0,
        1.0
      ],
      "min": [
        0.0,
        0.0,
        1.0
      ],
      "type": "VEC3"
    },
    {
      "bufferView": 1,
      "byteOffset": 89152,
      "componentType": 5126,
      "count": 4,
      "max": [
        1.0,
        1.0
      ],
      "min": [
        0.0,
        0.0
      ],
      "type": "VEC2"
    },
    {
      "bufferView": 0,
      "byteOffset": 98016,
      "componentType": 5125,
      "count": 6,
      "type": "SCALAR"
    },
    {
      "bufferView": 2,
      "byteOffset": 267552,
      "componentType": 5126,
      "count": 4,
      "max": [
        6.0205841064453125,
        4.9206953048706055,
        0.0
      ],
      "min": [
        -6.0205841064453125,
        -4.9206953048706055,
        0.0
      ],
      "type": "VEC3"
    },
    {
      "bufferView": 2,
      "byteOffset": 267600,
      "componentType": 5126,
      "count": 4,
      "max": [
        0.0,
        0.0,
        1.0
      ],
      "min": [
        0.0,
        0.0,
        1.0
      ],
      "type": "VEC3"
    },
    {
      "bufferView": 1,
      "byteOffset": 89184,
      "componentType": 5126,
      "count": 4,
      "max": [
        1.0,
        1.0
      ],
      "min": [
        0.0,
        0.0
      ],
      "type": "VEC2"
    },
    {
      "bufferView": 0,
      "byteOffset": 98040,
      "componentType": 5125,
      "count": 6,
      "type": "SCALAR"
    },
    {
      "bufferView": 2,
      "byteOffset": 267648,
      "componentType": 5126,
      "count": 4,
      "max": [
        6.0205841064453125,
        4.9206953048706055,
        0.0
      ],
      "min": [
        -6.0205841064453125,
        -4.9206953048706055,
        0.0
      ],
      "type": "VEC3"
    },
    {
      "bufferView": 2,
      "byteOffset": 267696,
      "componentType": 5126,
      "count": 4,
      "max": [
        0.0,
        0.0,
        1.0
      ],
      "min": [
        0.0,
        0.0,
        1.0
      ],
      "type": "VEC3"
    },
    {
      "bufferView": 1,
      "byteOffset": 89216,
      "componentType": 5126,
      "count": 4,
      "max": [
        1.0,
        1.0
      ],
      "min": [
        0.0,
        0.0
      ],
      "type": "VEC2"
    },
    {
      "bufferView": 0,
      "byteOffset": 98064,
      "componentType": 5125,
      "count": 6,
      "type": "SCALAR"
    }
  ],
  "asset": {
    "extras": {
      "author": "Federico Paredes (https://sketchfab.com/EmilioPa)",
      "license": "CC-BY-4.0 (http://creativecommons.org/licenses/by/4.0/)",
      "source": "https://sketchfab.com/3d-models/abandoned-building-1aa481727ca54c59834a4f311b43e0cd",
      "title": "Abandoned building"
    },
    "generator": "Sketchfab-13.35.0",
    "version": "2.0"
  },
  "bufferViews": [
    {
      "buffer": 0,
      "byteLength": 98088,
      "name": "floatBufferViews",
      "target": 34963
    },
    {
      "buffer": 0,
      "byteLength": 89248,
      "byteOffset": 98088,
      "byteStride": 8,
      "name": "floatBufferViews",
      "target": 34962
    },
    {
      "buffer": 0,
      "byteLength": 267744,
      "byteOffset": 187336,
      "byteStride": 12,
      "name": "floatBufferViews",
      "target": 34962
    }
  ],
  "buffers": [
    {
      "byteLength": 455080,
      "uri": "scene.bin"
    }
  ],
  "images": [
    {
      "uri": "textures/Material.002_baseColor.jpeg"
    },
    {
      "uri": "textures/Door1_baseColor.jpeg"
    }
  ],
  "materials": [
    {
      "doubleSided": true,
      "name": "Material.002",
      "pbrMetallicRoughness": {
        "baseColorTexture": {
          "index": 0
        },
        "metallicFactor": 0.0
      }
    },
    {
      "doubleSided": true,
      "name": "Door1",
      "pbrMetallicRoughness": {
        "baseColorTexture": {
          "index": 1
        },
        "metallicFactor": 0.0,
        "roughnessFactor": 0.8211145618000169
      }
    }
  ],
  "meshes": [
    {
      "name": "Cube_Material.002_0",
      "primitives": [
        {
          "attributes": {
            "NORMAL": 1,
            "POSITION": 0,
            "TEXCOORD_0": 2
          },
          "indices": 3,
          "material": 0,
          "mode": 4
        }
      ]
    },
    {
      "name": "1_Door1_0",
      "primitives": [
        {
          "attributes": {
            "NORMAL": 5,
            "POSITION": 4,
            "TEXCOORD_0": 6
          },
          "indices": 7,
          "material": 1,
          "mode": 4
        }
      ]
    },
    {
      "name": "2_Door1_0",
      "primitives": [
        {
          "attributes": {
            "NORMAL": 9,
            "POSITION": 8,
            "TEXCOORD_0": 10
          },
          "indices": 11,
          "material": 1,
          "mode": 4
        }
      ]
    },
    {
      "name": "3_Door1_0",
      "primitives": [
        {
          "attributes": {
            "NORMAL": 13,
            "POSITION": 12,
            "TEXCOORD_0": 14
          },
          "indices": 15,
          "material": 1,
          "mode": 4
        }
      ]
    }
  ],
  "nodes": [
    {
      "children": [
        1
      ],
      "matrix": [
        0.29037773609161377,
        0.0,
        0.0,
        0.0,
        0.0,
        6.447680968948738e-17,
        -0.29037773609161377,
        0.0,
        0.0,
        0.29037773609161377,
        6.447680968948738e-17,
        0.0,
        0.0,
        0.0,
        0.0,
        1.0
      ],
      "name": "Sketchfab_model"
    },
    {
      "children": [
        2
      ],
      "matrix": [
        0.009999999776482582,
        0.0,
        0.0,
        0.0,
        0.0,
        0.0,
        0.009999999776482582,
        0.0,
        0.0,
        -0.009999999776482582,
        0.0,
        0.0,
        0.0,
        0.0,
        0.0,
        1.0
      ],
      "name": "255fbab5dde44acfb90af7ddff2423e5.fbx"
    },
    {
      "children": [
        3
      ],
      "name": "RootNode"
    },
    {
      "children": [
        4,
        5,
        7,
        9
      ],
      "matrix": [
        43.45509719848633,
        0.0,
        0.0,
        0.0,
        0.0,
        -7.0797339586154625e-06,
        -43.45509719848575,
        0.0,
        0.0,
        43.45509719848575,
        -7.0797339586154625e-06,
        0.0,
        528.2913208007813,
        7286.17236328125,
        -102.2734375,
        1.0
      ],
      "name": "Cube"
    },
    {
      "mesh": 0,
      "name": "Cube_Material.002_0"
    },
    {
      "children": [
        6
      ],
      "matrix": [
        -4.3711384852291014e-08,
        0.9999998807907096,
        -1.1102228922762585e-16,
        0.0,
        4.371138490780216e-08,
        1.9984012060972654e-15,
        0.9999998807907096,
        0.0,
        0.9999998807907086,
        4.371138490780216e-08,
        -4.3711384852291014e-08,
        0.0,
        13.000051498413086,
        -12.25013542175293,
        -28.598342895507813,
        1.0
      ],
      "name": "1"
    },
    {
      "mesh": 1,
      "name": "1_Door1_0"
    },
    {
      "children": [
        8
      ],
      "matrix": [
        -4.3711384852291014e-08,
        0.9999998807907096,
        -1.1102228922762585e-16,
        0.0,
        4.371138490780216e-08,
        1.9984012060972654e-15,
        0.9999998807907096,
        0.0,
        0.9999998807907086,
        4.371138490780216e-08,
        -4.3711384852291014e-08,
        0.0,
        13.000051498413086,
        -0.10617446899414063,
        -28.598342895507813,
        1.0
      ],
      "name": "2"
    },
    {
      "mesh": 2,
      "name": "2_Door1_0"
    },
    {
      "children": [
        10
      ],
      "matrix": [
        -4.3711384852291014e-08,
        0.9999998807907096,
        -1.1102228922762585e-16,
        0.0,
        4.371138490780216e-08,
        1.9984012060972654e-15,
        0.9999998807907096,
        0.0,
        0.9999998807907086,
        4.371138490780216e-08,
        -4.3711384852291014e-08,
        0.0,
        13.000051498413086,
        12.765780448913574,
        -28.598342895507813,
        1.0
      ],
      "name": "3"
    },
    {
      "mesh": 3,
      "name": "3_Door1_0"
    }
  ],
  "samplers": [
    {
      "magFilter": 9729,
      "minFilter": 9987,
      "wrapS": 10497,
      "wrapT": 10497
    }
  ],
  "scene": 0,
  "scenes": [
    {
      "name": "Sketchfab_Scene",
      "nodes": [
        0
      ]
    }
  ],
  "textures": [
    {
      "sampler": 0,
      "source": 0
    },
    {
      "sampler": 0,
      "source": 1
    }
  ]
}
